<?xml version="1.0" standalone="no"?>
<!DOCTYPE svg PUBLIC "-//W3C//DTD SVG 20010904//EN"
 "http://www.w3.org/TR/2001/REC-SVG-20010904/DTD/svg10.dtd">
<svg version="1.0" xmlns="http://www.w3.org/2000/svg"
 width="300.000000pt" height="300.000000pt" viewBox="0 0 300.000000 300.000000"
 preserveAspectRatio="xMidYMid meet">

<g transform="translate(0.000000,300.000000) scale(0.100000,-0.100000)"
fill="#000000" stroke="none">
<path d="M1325 2431 c-16 -4 -55 -14 -85 -21 -120 -28 -192 -91 -146 -129 10
-8 24 -5 61 14 87 47 203 67 350 62 126 -4 147 -8 235 -50 14 -6 33 -20 43
-30 40 -39 94 0 64 47 -23 35 -50 51 -138 83 -65 23 -92 27 -214 29 -77 2
-153 0 -170 -5z"/>
<path d="M1883 2314 c-11 -28 9 -44 89 -75 89 -35 144 -88 153 -148 4 -20 13
-51 20 -68 17 -38 7 -76 -24 -92 -36 -20 -48 -13 -55 32 -4 23 -20 65 -35 92
-15 28 -31 63 -35 79 -11 43 -39 79 -80 101 -29 16 -37 17 -50 6 -24 -20 -19
-44 14 -76 17 -16 36 -47 42 -70 6 -22 17 -47 24 -55 26 -31 45 -105 47 -185
2 -79 2 -80 30 -83 21 -3 31 3 44 26 12 20 32 34 72 48 45 15 60 26 79 59 24
43 26 100 4 160 -6 17 -16 50 -22 74 -16 61 -97 139 -174 169 -70 27 -134 29
-143 6z"/>
<path d="M905 2290 c-60 -24 -78 -37 -122 -91 -63 -76 -85 -133 -77 -197 9
-75 22 -97 71 -125 33 -18 52 -37 67 -68 23 -47 53 -61 75 -35 9 11 10 24 4
42 -10 30 7 120 31 164 8 14 17 41 21 60 16 72 42 116 79 134 20 9 36 23 36
31 0 29 -13 45 -37 45 -21 0 -23 2 -13 15 6 8 9 23 5 35 -9 28 -54 25 -140
-10z m62 -79 c-22 -20 -40 -51 -56 -98 -34 -100 -64 -173 -71 -173 -32 0 -59
72 -46 123 7 31 93 137 109 137 7 0 28 9 47 19 50 28 56 25 17 -8z"/>
<path d="M1226 1837 c-38 -28 2 -96 42 -71 23 15 22 54 -4 70 -17 12 -23 12
-38 1z"/>
<path d="M1622 1828 c-29 -29 -6 -68 40 -68 21 0 29 6 34 25 4 15 1 32 -6 40
-15 18 -51 20 -68 3z"/>
<path d="M1383 1765 c-58 -25 -56 -80 4 -146 30 -34 41 -39 77 -39 47 0 86 31
105 83 16 43 14 56 -18 88 -25 25 -37 29 -83 29 -29 -1 -67 -7 -85 -15z m107
-74 c0 -5 -7 -14 -15 -21 -12 -10 -18 -10 -30 0 -23 19 -18 30 15 30 17 0 30
-4 30 -9z"/>
<path d="M840 1704 c-53 -45 -80 -112 -80 -197 0 -65 4 -79 30 -118 16 -25 48
-55 72 -68 68 -38 67 -37 47 -79 -10 -21 -24 -64 -29 -97 -6 -33 -17 -77 -25
-98 -21 -52 -29 -190 -16 -265 11 -71 61 -148 118 -183 46 -28 119 -35 185
-15 67 19 94 45 78 75 -13 25 -27 26 -95 5 -75 -24 -115 -14 -164 42 -32 37
-41 56 -47 101 -9 71 2 196 20 231 7 15 16 54 20 86 7 67 41 136 67 136 9 0
27 9 40 19 34 28 17 50 -49 67 -127 33 -172 76 -172 166 0 64 14 100 54 137
28 26 33 50 14 69 -18 18 -33 15 -68 -14z"/>
<path d="M2001 1701 c-8 -14 -3 -29 21 -67 26 -40 32 -58 30 -99 -1 -30 -9
-60 -20 -75 -20 -29 -110 -76 -162 -86 -43 -8 -60 -21 -60 -45 0 -23 33 -41
68 -37 24 3 29 -3 58 -74 43 -105 88 -433 69 -509 -6 -26 -83 -69 -123 -69
-31 0 -74 19 -95 41 -22 23 -31 24 -51 3 -23 -22 -20 -32 17 -69 62 -62 152
-69 248 -18 78 40 84 55 83 208 -1 127 -34 366 -54 390 -10 13 -53 126 -48
128 44 23 77 43 92 56 33 28 58 100 59 168 1 56 -3 68 -33 110 -19 27 -39 51
-44 55 -19 14 -45 8 -55 -11z"/>
<path d="M1083 1214 c-11 -28 11 -47 68 -59 70 -14 96 -29 119 -68 25 -41 25
-83 0 -124 -24 -41 -53 -48 -131 -34 -68 12 -99 3 -99 -28 0 -32 28 -45 115
-49 110 -6 128 0 169 54 107 140 2 322 -187 324 -35 0 -49 -4 -54 -16z"/>
<path d="M1705 1197 c-48 -25 -67 -43 -93 -87 -28 -47 -33 -62 -29 -102 4 -51
38 -105 84 -135 30 -20 137 -22 171 -4 25 13 29 43 9 60 -8 6 -42 10 -77 9
-59 -2 -65 0 -86 28 -48 59 -17 127 78 175 63 32 78 50 58 74 -19 23 -49 18
-115 -18z"/>
<path d="M1275 712 c-25 -6 -30 -12 -30 -37 0 -30 1 -30 55 -31 30 -1 129 -4
219 -8 170 -7 191 -3 191 34 0 10 -6 23 -13 29 -16 12 -374 23 -422 13z"/>
</g>
</svg>
